<svg width="120" height="63" viewBox="0 0 120 63" fill="none" xmlns="http://www.w3.org/2000/svg">
<path d="M28.4837 28.3598C29.3058 33.593 27.3789 39.8564 24.0154 42.3686C20.9223 44.9615 16.5879 47.915 10.9803 46.5276L6.2761 45.3638L6.29768 62.0887L0 62.2212V14.436H11.6455C20.9664 14.436 28.7533 19.4816 28.4837 28.3598H28.4837ZM6.47433 39.7455C8.25194 40.6862 9.41075 41.0648 10.565 41.1828C16.7549 41.8157 18.5217 39.3282 20.0061 37.8196C21.8093 35.9869 22.8628 32.4461 22.4861 28.9582C22.1758 26.085 21.0014 23.6175 19.0616 22.0836C17.309 20.6978 15.162 20.1423 11.0953 19.9652L6.34349 20.1661L6.47433 39.7455Z" fill="white"/>
<path d="M39.2259 45.861H33.3376V14.3255H39.2259V45.861Z" fill="white"/>
<path d="M96.4642 46.4614C91.8029 46.4614 88.1199 45.0419 85.4152 42.2029C82.7297 39.364 80.7804 35.1524 80.7804 30.1075C80.7804 25.0242 82.0273 20.9864 84.521 17.994C87.0338 15.0015 91.0069 13.7749 95.2269 13.7749C99.1784 13.7749 103.249 15.1467 105.551 17.7555C107.852 20.3451 108.866 23.7936 109.121 28.0444L109.276 30.6226L87.2521 30.7597C87.348 34.4618 88.9123 35.9436 90.6771 37.8618C92.461 39.78 94.9643 40.7392 98.1869 40.7392C101.582 40.7392 106.021 39.1596 108.744 37.0491L108.602 42.8695C107.064 44.0221 103.418 45.6653 101.902 45.9722C100.406 46.2983 98.5934 46.4614 96.4642 46.4614V46.4614ZM95.7759 19.0549C93.2439 19.0549 91.2202 19.8797 89.7048 21.5294C88.2086 23.1791 87.461 24.2486 87.1924 27.1643L103.342 26.979C103.189 23.9674 102.468 23.064 101.531 21.4718C100.188 19.8605 98.2696 19.0549 95.7759 19.0549Z" fill="white"/>
<path d="M119.657 45.9025H113.619L113.574 0H119.613L119.657 45.9025Z" fill="white"/>
<path d="M31.73 4.57088L36.1846 0.0904541L40.665 4.54499L36.2105 9.02542L31.73 4.57088Z" fill="white"/>
<path d="M80.4842 45.5835L71.8169 45.6429L61.1528 34.4496L65.6213 29.9831L80.4842 45.5835ZM41.8214 45.5835L50.4887 45.6429L61.1528 34.4496L56.6842 29.9831L41.8214 45.5835ZM80.4862 14.3806L71.819 14.3212L61.1548 25.5145L65.6234 29.981L80.4862 14.3806ZM41.8234 14.3806L50.4907 14.3212L61.1548 25.5145L56.6863 29.981L41.8234 14.3806Z" fill="white"/>
</svg>
